<svg xmlns="http://www.w3.org/2000/svg" viewBox="0 0 84 213">
    <title>Remote Driver Icon</title>
    <g id="Layer_2" data-name="Layer 2">
        <g id="Layer_1-2" data-name="Layer 1">
            <path d="M67.77,0H16.23A16.23,16.23,0,0,0,0,16.23V196.77A16.23,16.23,0,0,0,16.23,213H67.77A16.23,16.23,0,0,0,84,196.77V16.23A16.23,16.23,0,0,0,67.77,0ZM42,15A12,12,0,1,1,30,27,12,12,0,0,1,42,15Zm0,129a12,12,0,1,1,12-12A12,12,0,0,1,42,144Zm0-35A29,29,0,1,1,71,80,29,29,0,0,1,42,109Z"/>
            <circle cx="42" cy="80" r="13"/>
        </g>
    </g>
</svg>