<svg xmlns="http://www.w3.org/2000/svg" viewBox="0 0 300 167.73"><title>123Asset 1</title><g id="Layer_2" data-name="Layer 2"><g id="Layer_1-2" data-name="Layer 1"><g id="androd"><path d="M92.93,14.75l8.42-12.29A1.6,1.6,0,0,0,101,.19a1.3,1.3,0,0,0-1.94.65L90.34,13.45A51.15,51.15,0,0,0,71.56,9.9a49.9,49.9,0,0,0-18.78,3.55L44,.84c-.65-.65-1.3-1-1.94-.65s-.65,1.3-.33,2.27l8.42,12.29c-13.28,6.14-22.67,18.11-24,31.69h91C115.6,32.54,106.53,20.89,92.93,14.75ZM52.46,33.83a5.18,5.18,0,1,1,5.18-5.17A5.1,5.1,0,0,1,52.46,33.83Zm37.88,0a5.18,5.18,0,1,1,5.18-5.17A5.11,5.11,0,0,1,90.34,33.83Z"/><path d="M20.08,103.69a10.09,10.09,0,0,1-10,10h0a10.08,10.08,0,0,1-10-10V62.61a10.08,10.08,0,0,1,10-10h0a10.09,10.09,0,0,1,10,10Z"/><path d="M25.9,52.91V127a8,8,0,0,0,8.1,8.08h9.39V157.7a10,10,0,0,0,20.08,0V135.06H79V157.7a10,10,0,0,0,20.08,0V135.06h9.39a8,8,0,0,0,8.09-8.08V52.91Z"/><path d="M122.72,103.69a10.09,10.09,0,0,0,10,10h0a10.08,10.08,0,0,0,10-10V62.61a10.08,10.08,0,0,0-10-10h0a10.09,10.09,0,0,0-10,10Z"/></g><g id="g33678"><path id="path33680" d="M265.68,142.19,300,57.77H282.84l-28.17,73.42h5.83L232.32,58.1H214.51l34.33,84.41h16.84Zm-55.38,1V128.28h-1.94c-12.3,0-21.05-7.44-21.05-19.73V71.68h22V57.77h-22v-23H172.1v73.42c0,22,14.24,34.93,36.26,34.93Z"/></g></g></g></svg>